<svg width="19px" height="19px" viewBox="0 0 24 24" xmlns="http://www.w3.org/2000/svg" fill="#a1a3a8" stroke="#a1a3a8" stroke-width="0.00024000000000000003" class="mb-1"> <g id="SVGRepo_bgCarrier" stroke-width="0"></g> <g id="SVGRepo_tracerCarrier" stroke-linecap="round" stroke-linejoin="round" stroke="#CCCCCC" stroke-width="0.048"></g> <g id="SVGRepo_iconCarrier"> <g> <path fill="none" d="M0 0h24v24H0z"></path> <path d="M12 2a6 6 0 0 1 6 6v1h4v2h-1.167l-.757 9.083a1 1 0 0 1-.996.917H4.92a1 1 0 0 1-.996-.917L3.166 11H2V9h4V8a6 6 0 0 1 6-6zm1 11h-2v4h2v-4zm-4 0H7v4h2v-4zm8 0h-2v4h2v-4zm-5-9a4 4 0 0 0-3.995 3.8L8 8v1h8V8a4 4 0 0 0-3.8-3.995L12 4z"> </path> </g> </g> </svg>